<?xml version="1.0" standalone="no"?>
<!DOCTYPE svg PUBLIC "-//W3C//DTD SVG 20010904//EN"
 "http://www.w3.org/TR/2001/REC-SVG-20010904/DTD/svg10.dtd">
<svg version="1.0" xmlns="http://www.w3.org/2000/svg"
 width="512.000000pt" height="512.000000pt" viewBox="0 0 512.000000 512.000000"
 preserveAspectRatio="xMidYMid meet">
<metadata>
Created by potrace 1.14, written by Peter Selinger 2001-2017
</metadata>
<g transform="translate(0.000000,512.000000) scale(0.100000,-0.100000)"
fill="#000000" stroke="none">
<path d="M927 4974 c-3 -3 -59 -6 -124 -6 -65 0 -122 -2 -127 -5 -5 -4 -21 -7
-35 -9 -78 -7 -147 -31 -197 -70 -18 -13 -37 -25 -44 -26 -19 -4 -125 -115
-141 -146 -7 -15 -21 -38 -30 -52 -9 -14 -17 -28 -18 -32 -1 -4 -8 -23 -16
-42 -8 -20 -15 -48 -15 -64 0 -16 -3 -32 -7 -36 -12 -12 -14 -50 -18 -486 -3
-234 -5 -429 -5 -435 0 -5 1 -90 2 -188 2 -97 -1 -177 -6 -177 -5 0 -4 -6 1
-12 11 -14 9 -360 -2 -377 -3 -6 -3 -11 2 -11 10 0 10 -661 0 -677 -5 -8 -3
-13 3 -13 6 0 8 -5 4 -12 -5 -7 -7 -28 -6 -48 2 -57 4 -304 2 -312 -5 -20 -3
-66 3 -81 3 -9 2 -17 -4 -17 -6 0 -6 -7 1 -19 7 -14 7 -22 0 -26 -6 -4 -7 -12
-3 -18 9 -15 11 -47 3 -47 -9 0 -6 -93 4 -108 4 -7 4 -12 -1 -12 -10 0 -8
-388 3 -414 5 -12 4 -17 -3 -13 -11 7 -11 -188 0 -199 3 -4 2 -15 -3 -25 -7
-12 -6 -19 3 -22 8 -4 8 -6 0 -6 -8 -1 -9 -11 -3 -33 5 -18 11 -52 14 -75 6
-51 76 -201 105 -227 11 -10 18 -23 15 -27 -3 -5 -1 -9 5 -9 6 0 29 -20 53
-45 24 -25 49 -45 56 -45 6 0 12 -4 12 -10 0 -5 6 -10 13 -10 8 0 22 -9 31
-19 10 -11 24 -17 32 -14 8 3 14 0 14 -7 0 -6 4 -9 9 -5 5 3 12 1 16 -5 4 -6
10 -8 15 -5 5 3 11 1 15 -5 4 -6 11 -8 16 -5 5 4 9 2 9 -2 0 -5 8 -9 18 -9 9
0 40 -4 67 -8 28 -4 103 -9 167 -11 65 -2 122 -6 127 -10 5 -3 12 -2 14 2 7
10 949 9 965 -1 6 -4 12 -4 12 1 0 9 482 8 505 -1 8 -3 17 -1 21 5 4 7 10 6
18 0 7 -6 15 -8 18 -5 9 8 164 7 178 -1 9 -6 11 -4 5 6 -7 11 -6 12 7 2 8 -7
17 -11 20 -8 8 9 279 11 284 3 3 -5 10 -6 15 -2 9 5 92 8 114 4 6 -1 15 -1 20
0 6 1 82 1 170 1 88 -1 165 -2 170 -2 32 1 306 1 339 1 21 -1 40 1 43 3 2 3
18 1 34 -3 16 -5 29 -5 29 0 0 8 7 8 45 0 6 -1 12 -2 15 -1 19 7 71 7 75 0 3
-4 11 -6 18 -3 23 8 157 9 157 1 0 -5 5 -5 11 -1 6 4 43 8 83 10 75 3 140 10
184 20 46 10 175 69 206 93 48 39 116 109 116 120 0 7 6 19 13 26 29 33 35 43
31 48 -3 3 1 16 9 29 9 12 21 43 28 68 17 63 19 71 21 103 0 15 4 27 7 27 3 0
6 24 6 53 -1 28 4 58 10 66 6 9 6 13 0 9 -7 -4 -10 160 -10 483 0 269 3 489 7
489 4 0 5 6 2 14 -9 23 -10 256 -1 256 5 0 5 5 1 11 -6 10 -9 140 -4 164 1 6
2 12 0 15 -6 16 -5 132 1 136 5 3 5 12 2 20 -10 26 -9 258 0 272 5 6 6 12 1
12 -5 0 -8 225 -6 512 2 282 2 531 2 553 -1 22 -2 186 -2 365 -1 179 -5 330
-9 335 -4 6 -10 31 -13 56 -3 25 -10 57 -15 71 -5 14 -7 29 -3 34 4 4 1 4 -5
0 -9 -5 -13 1 -13 19 0 14 -7 28 -15 31 -8 4 -13 10 -10 14 3 4 -2 10 -10 14
-8 3 -15 11 -15 19 0 16 -85 107 -100 107 -6 0 -9 4 -6 8 3 5 -9 16 -27 25
-18 9 -39 21 -47 26 -18 10 -112 54 -122 57 -5 1 -10 3 -13 4 -3 1 -8 3 -12 4
-5 1 -13 5 -20 9 -6 4 -14 3 -18 -3 -4 -6 -11 -8 -16 -4 -21 13 -89 15 -609
18 -375 2 -539 0 -549 -8 -8 -6 -12 -6 -9 -1 4 6 -50 10 -153 11 -87 1 -165 4
-174 7 -8 4 -16 3 -19 -1 -5 -9 -831 -6 -846 3 -5 3 -10 1 -10 -5 0 -6 -5 -8
-11 -4 -6 3 -48 6 -93 4 -186 -5 -216 -5 -216 0 0 6 -58 5 -65 -1 -2 -3 -29
-2 -60 1 -30 3 -55 4 -55 1 0 -7 -245 -4 -278 3 -12 3 -21 2 -18 -2 5 -8 -262
-7 -270 1 -3 3 -18 1 -34 -3 -16 -4 -31 -5 -35 -2 -8 8 -41 12 -48 6z m3602
-80 c171 -49 311 -187 361 -354 20 -66 20 -98 20 -1976 0 -2104 4 -1962 -62
-2086 -59 -112 -162 -196 -296 -245 l-64 -24 -1922 1 c-2118 0 -1957 -5 -2087
61 -73 36 -172 136 -210 210 -62 124 -59 4 -59 2090 0 1725 1 1909 16 1959 49
169 166 293 333 354 56 21 69 21 1781 26 2065 6 2115 6 2189 -16z"/>
<path d="M2455 4300 c-336 -53 -591 -332 -612 -668 -25 -416 300 -762 717
-762 281 0 522 151 645 405 141 290 76 626 -163 845 -74 68 -208 140 -307 165
-78 20 -204 26 -280 15z"/>
<path d="M1331 2329 c-285 -35 -513 -232 -602 -519 -19 -60 -23 -98 -24 -190
0 -138 13 -196 71 -317 122 -255 362 -406 644 -406 129 0 204 18 328 79 166
81 300 238 358 419 38 117 44 271 15 385 -90 361 -425 594 -790 549z"/>
<path d="M3545 2314 c-83 -17 -232 -88 -295 -140 -115 -96 -209 -242 -247
-384 -23 -88 -23 -262 0 -350 65 -243 249 -436 491 -512 92 -29 254 -35 352
-13 241 53 438 223 523 450 32 86 42 147 42 260 -2 450 -418 781 -866 689z"/>
</g>
</svg>
